#!OML:ASF F:\VICON\USERDATA\INSTALL\rory3\rory3.ASF
:FULLY-SPECIFIED
:DEGREES
407
root -4.1518 15.195 22.1699 568.479 -17.2419 186.644
lowerback -3.23671 -0.426543 -3.5593
upperback -10.6032 -2.15817 -3.42255
thorax -9.45262 -1.47612 -1.45905
lowerneck -19.4582 9.89631 2.45278
upperneck 11.5531 13.1246 -2.61103
head 7.00427 6.16474 0.299072
rclavicle 1.82882e-014 -6.99722e-014
rhumerus 135.642 -24.7629 247.494
rradius 13.2224
rwrist 64.8653
rhand -13.9359 8.58285
rfingers 7.12502
rthumb 12.191 -21.0419
lclavicle 1.82882e-014 -6.99722e-014
lhumerus -8.20817 56.6285 -0.20052
lradius 18.3251
lwrist -43.1406
lhand -3.04661 31.2244
lfingers 7.12502
lthumb 22.6692 59.9129
rfemur 5.32559 7.33677 35.4611
rtibia 3.49861e-014
rfoot -38.2127 -45.7545
rtoes 1.7013
lfemur -88.7919 24.204 -44.4249
ltibia 64.5537
lfoot -30.5818 24.8305
ltoes 13.0868
408
root -4.14528 15.2232 22.1915 568.73 -16.6999 186.497
lowerback -2.95087 -0.212032 -3.65461
upperback -10.8432 -1.99504 -3.79546
thorax -9.91443 -1.43016 -1.80303
lowerneck -19.2479 10.1413 2.73826
upperneck 11.4361 13.42 -2.84768
head 6.97503 6.30224 0.207338
rclavicle 0 5.725e-014
rhumerus 135.922 -24.029 245.691
rradius 13.1447
rwrist 67.0992
rhand -13.8816 8.11961
rfingers 7.12502
rthumb 12.2432 -21.502
lclavicle 0 5.725e-014
lhumerus -9.03228 57.3574 -1.32609
lradius 18.4652
lwrist -43.2372
lhand -2.58008 30.7476
lfingers 7.12502
lthumb 23.1169 59.3807
rfemur 5.00393 7.82725 35.1332
rtibia 0
rfoot -38.9722 -45.8807
rtoes 2.37088
lfemur -88.7949 24.2563 -44.6561
ltibia 64.1314
lfoot -30.1449 25.0396
ltoes 14.0195
409
root -4.14676 15.2505 22.2243 569.111 -15.8231 186.666
lowerback -3.21858 0.0472089 -3.74763
upperback -10.8354 -1.64702 -3.89365
thorax -9.74622 -1.26346 -1.8792
lowerneck -19.5908 10.3708 2.72123
upperneck 11.2121 13.7883 -3.3083
head 7.00026 6.42896 0.121755
rclavicle 1.63003e-014 9.22361e-014
rhumerus 136.565 -22.733 244.032
rradius 13.0666
rwrist 68.9055
rhand -13.6814 7.62624
rfingers 7.12502
rthumb 12.4363 -21.9838
lclavicle 1.63003e-014 9.22361e-014
lhumerus -10.4018 57.5235 -2.69186
lradius 18.6123
lwrist -42.4427
lhand -3.04487 31.1313
lfingers 7.12502
lthumb 22.6709 59.8197
rfemur 4.41723 8.83122 34.8479
rtibia -1.59028e-014
rfoot -38.8907 -46.617
rtoes 1.42065
lfemur -89.3287 24.571 -44.9953
ltibia 63.7979
lfoot -29.82 25.5685
ltoes 13.8449
410
root -4.14037 15.2722 22.2491 569.151 -15.0674 186.56
lowerback -3.1043 0.238512 -4.10816
upperback -10.6818 -1.40064 -4.13248
thorax -9.64414 -1.11892 -1.94566
lowerneck -19.7819 10.5696 2.77733
upperneck 10.6973 14.072 -3.71737
head 6.90566 6.53407 0.0151242
rclavicle -2.0276e-014 1.90833e-014
rhumerus 137.156 -21.6408 242.334
rradius 13.0529
rwrist 70.5913
rhand -13.6319 7.12556
rfingers 7.12502
rthumb 12.4841 -22.4815
lclavicle -2.0276e-014 1.90833e-014
lhumerus -11.1133 56.5498 -3.62426
lradius 18.8131
lwrist -40.5894
lhand -3.38408 31.7932
lfingers 7.12502
lthumb 22.3453 60.521
rfemur 4.31274 9.47183 34.4825
rtibia 6.36111e-015
rfoot -39.3166 -47.0837
rtoes 1.30862
lfemur -89.2841 24.9142 -45.2249
ltibia 63.5334
lfoot -29.8023 25.9166
ltoes 13.8642
411
root -4.13547 15.2825 22.285 569.43 -14.1764 186.852
lowerback -3.18392 0.594823 -4.05647
upperback -10.7429 -0.952553 -4.35245
thorax -9.66977 -0.92419 -2.234
lowerneck -19.7601 10.7108 2.89441
upperneck 10.1463 14.2749 -4.21763
head 6.77643 6.60008 -0.149293
rclavicle 2.38542e-015 3.49861e-014
rhumerus 137.702 -20.7354 240.766
rradius 12.9804
rwrist 72.3854
rhand -13.4045 6.70846
rfingers 7.12502
rthumb 12.7033 -22.8852
lclavicle 2.38542e-015 3.49861e-014
lhumerus -11.5592 55.9724 -4.44056
lradius 18.9946
lwrist -39.2548
lhand -2.91364 31.9155
lfingers 7.12502
lthumb 22.7968 60.5884
rfemur 3.83786 10.5153 34.3388
rtibia 3.18055e-014
rfoot -39.5036 -47.7413
rtoes 0.639169
lfemur -89.8843 25.2714 -45.3348
ltibia 63.4084
lfoot -29.975 26.2305
ltoes 14.4039
412
root -4.12043 15.2922 22.3195 569.432 -13.4428 187.012
lowerback -2.78584 0.834877 -4.28027
upperback -10.7496 -0.667256 -4.48006
thorax -9.91574 -0.766593 -2.2632
lowerneck -19.8597 10.8987 2.98713
upperneck 9.71715 14.5542 -4.76752
head 6.71321 6.69065 -0.305229
rclavicle 2.46493e-014 1.04958e-013
rhumerus 138.039 -20.0359 239.526
rradius 13.0874
rwrist 73.7953
rhand -13.2091 6.69068
rfingers 7.12502
rthumb 12.8916 -22.8911
lclavicle 2.46493e-014 1.04958e-013
lhumerus -12.2472 55.5724 -5.5322
lradius 19.2415
lwrist -38.475
lhand -2.49198 31.8348
lfingers 7.12502
lthumb 23.2014 60.4573
rfemur 3.65791 11.2799 34.2543
rtibia -9.54166e-015
rfoot -39.5515 -48.5287
rtoes -0.442106
lfemur -90.1246 25.6938 -45.3476
ltibia 63.3313
lfoot -30.2762 26.2801
ltoes 15.0691
413
root -4.0991 15.2971 22.3602 569.426 -12.6321 187.072
lowerback -2.33701 1.1006 -4.71987
upperback -10.7295 -0.359942 -4.63552
thorax -10.168 -0.579793 -2.2084
lowerneck -19.9305 11.0745 3.06709
upperneck 9.21648 14.7925 -5.19021
head 6.61077 6.77693 -0.42853
rclavicle -2.06736e-014 1.90833e-014
rhumerus 138.273 -19.5368 238.502
rradius 13.3997
rwrist 74.9608
rhand -12.9139 6.68712
rfingers 7.12502
rthumb 13.1762 -22.8765
lclavicle -2.06736e-014 1.90833e-014
lhumerus -12.6676 54.4159 -6.36269
lradius 19.4892
lwrist -37.1065
lhand -2.46011 31.9134
lfingers 7.12502
lthumb 23.232 60.5321
rfemur 3.52716 12.0534 34.0658
rtibia 2.54444e-014
rfoot -40.0133 -48.9854
rtoes -0.846252
lfemur -90.3727 26.1275 -45.4486
ltibia 63.332
lfoot -30.6649 26.2659
ltoes 15.9328
414
root -4.08943 15.2961 22.3917 569.563 -11.9203 187.151
lowerback -2.18262 1.39834 -4.89944
upperback -10.8213 -0.0235583 -4.8522
thorax -10.3727 -0.419916 -2.36864
lowerneck -19.5296 11.2419 3.21115
upperneck 8.47633 15.005 -5.67836
head 6.36754 6.86811 -0.614154
rclavicle 1.35174e-014 1.27222e-014
rhumerus 138.17 -19.6683 237.958
rradius 13.7036
rwrist 75.6298
rhand -12.6369 6.52045
rfingers 7.12502
rthumb 13.4432 -23.0257
lclavicle 1.35174e-014 1.27222e-014
lhumerus -12.8219 53.7838 -7.01516
lradius 19.6651
lwrist -36.3662
lhand -2.65921 31.9106
lfingers 7.12502
lthumb 23.041 60.5533
rfemur 3.30217 12.7747 33.849
rtibia 9.54166e-015
rfoot -40.3741 -49.5062
rtoes -1.01893
lfemur -90.788 26.4461 -45.6245
ltibia 63.4171
lfoot -30.9556 26.2631
ltoes 16.6885
415
root -4.08403 15.2839 22.4119 569.526 -11.5376 187.402
lowerback -1.99783 1.62758 -4.62601
upperback -10.8642 0.255653 -5.06937
thorax -10.5251 -0.322832 -2.77961
lowerneck -19.3877 11.3698 3.40572
upperneck 8.01133 15.1585 -6.14437
head 6.25607 6.9211 -0.785077
rclavicle -5.36719e-014 1.30403e-013
rhumerus 138.008 -19.9753 237.483
rradius 13.8566
rwrist 75.9781
rhand -12.5867 6.19007
rfingers 7.12502
rthumb 13.4916 -23.3529
lclavicle -5.36719e-014 1.30403e-013
lhumerus -12.7748 54.0517 -7.64846
lradius 19.751
lwrist -36.8131
lhand -3.17419 32.0372
lfingers 7.12502
lthumb 22.5468 60.7406
rfemur 3.29461 13.2389 33.9866
rtibia 4.45278e-014
rfoot -40.5376 -50.2983
rtoes -2.44265
lfemur -91.1723 26.8019 -45.6426
ltibia 63.5895
lfoot -30.7108 26.4262
ltoes 16.2349
416
root -4.07607 15.2721 22.4328 569.418 -11.1155 187.223
lowerback -1.5949 1.7993 -4.82726
upperback -10.8126 0.429267 -5.33154
thorax -10.7146 -0.233646 -2.97302
lowerneck -19.6178 11.493 3.40281
upperneck 7.80784 15.3478 -6.52036
head 6.2678 6.97383 -0.869826
rclavicle -2.3059e-014 1.59028e-014
rhumerus 138.142 -20.002 236.981
rradius 13.7951
rwrist 76.4178
rhand -12.7026 6.04413
rfingers 7.12502
rthumb 13.3799 -23.5062
lclavicle -2.3059e-014 1.59028e-014
lhumerus -12.7855 54.1512 -8.30958
lradius 19.8326
lwrist -37.0244
lhand -3.74598 32.0699
lfingers 7.12502
lthumb 21.9979 60.839
rfemur 3.44852 13.4884 33.737
rtibia -6.67916e-014
rfoot -41.0046 -50.8063
rtoes -3.52021
lfemur -91.2707 27.1216 -46.045
ltibia 63.7319
lfoot -30.5858 26.3707
ltoes 16.3907
